<svg width="20" height="20" viewBox="0 0 20 20" fill="none" xmlns="http://www.w3.org/2000/svg">
<path d="M17.2202 15.6423C17.2202 15.6423 16.2546 16.5906 16.018 16.8686C15.6325 17.28 15.1784 17.4742 14.583 17.4742C14.5258 17.4742 14.4647 17.4742 14.4075 17.4704C13.274 17.398 12.2207 16.9562 11.4307 16.5792C9.27058 15.5356 7.37382 14.0541 5.79764 12.1764C4.49624 10.6111 3.6261 9.16381 3.04982 7.60989C2.6949 6.66155 2.56514 5.92268 2.62238 5.2257C2.66055 4.78009 2.83229 4.41066 3.14905 4.09454L4.45045 2.7958C4.63745 2.62061 4.8359 2.52539 5.03054 2.52539C5.27098 2.52539 5.46561 2.67012 5.58774 2.79199C5.59155 2.7958 5.59537 2.79961 5.59919 2.80342C5.83199 3.02051 6.05334 3.24522 6.28614 3.48516C6.40445 3.60704 6.52658 3.72891 6.6487 3.8546L7.69058 4.89435C8.09512 5.29806 8.09512 5.67131 7.69058 6.07502C7.57991 6.18547 7.47305 6.29592 7.36237 6.40256C7.04179 6.7301 7.29363 6.47878 6.9616 6.77586C6.95396 6.78347 6.94633 6.78728 6.94252 6.7949C6.6143 7.12244 6.67537 7.44236 6.74406 7.65946C6.74788 7.67088 6.75169 7.68231 6.75551 7.69373C7.02648 8.34881 7.40812 8.96581 7.98821 9.70087L7.99203 9.70468C9.04536 10.9996 10.1559 12.0089 11.381 12.782C11.5375 12.8811 11.6978 12.961 11.8504 13.0372C11.9878 13.1058 12.1176 13.1705 12.2282 13.2391C12.2435 13.2467 12.2588 13.2581 12.274 13.2657C12.4038 13.3305 12.5259 13.361 12.6519 13.361C12.9686 13.361 13.1671 13.1629 13.232 13.0982L13.98 12.3516C14.1098 12.2221 14.3159 12.066 14.5563 12.066C14.7929 12.066 14.9876 12.2145 15.1059 12.344C15.1097 12.3478 15.1097 12.3478 15.1135 12.3516L17.2164 14.4502C17.6094 14.8386 17.2202 15.6423 17.2202 15.6423Z" stroke="black" stroke-linecap="round" stroke-linejoin="round"/>
</svg>
