<svg width="342" height="54" viewBox="0 0 342 54" fill="none" xmlns="http://www.w3.org/2000/svg">
<rect width="342" height="54" rx="14" fill="black"/>
<path d="M112.95 34H110.371L115.103 20.5664H118.071L122.821 34H120.242L119.129 30.6787H114.063L112.95 34ZM114.713 28.7305H118.479L116.643 23.3125H116.531L114.713 28.7305ZM124.306 37.7852V23.9248H126.625V25.5762H126.773C127.145 24.8525 127.887 23.7949 129.668 23.7949C131.987 23.7949 133.824 25.6133 133.824 28.9717C133.824 32.293 132.043 34.1855 129.668 34.1855C127.924 34.1855 127.145 33.1465 126.773 32.4043H126.681V37.7852H124.306ZM126.625 28.9531C126.625 30.9199 127.479 32.2373 129.019 32.2373C130.577 32.2373 131.412 30.8643 131.412 28.9531C131.412 27.0791 130.596 25.7246 129.019 25.7246C127.479 25.7246 126.625 27.0049 126.625 28.9531ZM135.68 37.7852V23.9248H137.999V25.5762H138.147C138.519 24.8525 139.261 23.7949 141.042 23.7949C143.361 23.7949 145.198 25.6133 145.198 28.9717C145.198 32.293 143.417 34.1855 141.042 34.1855C139.298 34.1855 138.519 33.1465 138.147 32.4043H138.055V37.7852H135.68ZM137.999 28.9531C137.999 30.9199 138.853 32.2373 140.393 32.2373C141.951 32.2373 142.786 30.8643 142.786 28.9531C142.786 27.0791 141.97 25.7246 140.393 25.7246C138.853 25.7246 137.999 27.0049 137.999 28.9531ZM149.429 20.5664V34H147.054V20.5664H149.429ZM156.164 34.2041C153.121 34.2041 151.266 32.1816 151.266 29.0273C151.266 25.9102 153.158 23.7949 156.034 23.7949C158.502 23.7949 160.636 25.335 160.636 28.8789V29.6211H153.604C153.631 31.3374 154.643 32.3486 156.183 32.3486C157.222 32.3486 157.927 31.9033 158.224 31.3096H160.543C160.116 33.0537 158.502 34.2041 156.164 34.2041ZM153.622 28.0068H158.372C158.354 26.6338 157.444 25.6318 156.071 25.6318C154.643 25.6318 153.696 26.7173 153.622 28.0068ZM177.224 31.9961V33.7031H161.897V31.9961H168.503V29.2686H163.716V23.7764H173.364V21.6982H163.679V20.0283H175.405V25.4092H165.775V27.5801H175.795V29.2686H170.544V31.9961H177.224ZM198.153 31.9961V33.7031H182.827V31.9961H189.433V29.2686H184.646V23.7764H194.294V21.6982H184.608V20.0283H196.335V25.4092H186.705V27.5801H196.725V29.2686H191.474V31.9961H198.153ZM212.589 20.5107V22.4033C212.589 24.6484 212.589 26.9678 211.977 30.4932L209.88 30.3076C210.529 27.0049 210.529 24.5742 210.529 22.4033V22.1807H200.862V20.5107H212.589ZM214.537 31.6621V33.3506H199.248V31.6621H214.537ZM229.641 18.8965V31.0127H227.562V18.8965H229.641ZM230.104 33.6475V35.3174H218.545V29.7881H220.623V33.6475H230.104ZM220.493 19.9912C223.035 19.9912 225.002 21.7539 225.002 24.1846C225.002 26.6709 223.035 28.3965 220.493 28.3965C217.933 28.3965 215.966 26.6709 215.966 24.1846C215.966 21.7539 217.933 19.9912 220.493 19.9912ZM220.493 21.791C219.064 21.791 217.97 22.7373 217.988 24.1846C217.97 25.6689 219.064 26.5967 220.493 26.5967C221.885 26.5967 222.979 25.6689 222.979 24.1846C222.979 22.7373 221.885 21.791 220.493 21.791Z" fill="white"/>
<path d="M27.1133 21.7788C27.2923 21.7788 27.5975 21.8073 28.0288 21.8643C28.4601 21.9212 28.9321 22.084 29.4448 22.3525C29.9657 22.613 30.4377 23.0483 30.8608 23.6587C30.8364 23.6831 30.7184 23.7726 30.5068 23.9272C30.2952 24.0737 30.0592 24.2935 29.7988 24.5864C29.5384 24.8713 29.3105 25.2375 29.1152 25.6851C28.9199 26.1245 28.8223 26.6494 28.8223 27.2598C28.8223 27.9596 28.9443 28.5537 29.1885 29.042C29.4408 29.5303 29.7297 29.925 30.0552 30.2261C30.3888 30.519 30.6818 30.7347 30.9341 30.873C31.1945 31.0114 31.3328 31.0846 31.3491 31.0928C31.341 31.1253 31.2352 31.4142 31.0317 31.9595C30.8364 32.5047 30.5109 33.111 30.0552 33.7783C29.6564 34.3561 29.2251 34.8892 28.7612 35.3774C28.3055 35.8657 27.7562 36.1099 27.1133 36.1099C26.682 36.1099 26.328 36.0488 26.0513 35.9268C25.7746 35.7965 25.4897 35.6704 25.1968 35.5483C24.9038 35.4181 24.5091 35.353 24.0127 35.353C23.5326 35.353 23.1297 35.4181 22.8042 35.5483C22.4868 35.6785 22.1816 35.8088 21.8887 35.939C21.6038 36.0692 21.2661 36.1343 20.8755 36.1343C20.2814 36.1343 19.7606 35.8983 19.313 35.4263C18.8654 34.9543 18.4056 34.3887 17.9336 33.7295C17.3883 32.9482 16.9204 31.9961 16.5298 30.873C16.1473 29.7419 15.9561 28.6025 15.9561 27.4551C15.9561 26.2262 16.188 25.1968 16.6519 24.3667C17.1157 23.5285 17.7098 22.8978 18.4341 22.4746C19.1665 22.0433 19.9233 21.8276 20.7046 21.8276C21.1196 21.8276 21.5103 21.8968 21.8765 22.0352C22.2427 22.1654 22.5845 22.2996 22.9019 22.438C23.2274 22.5763 23.5203 22.6455 23.7808 22.6455C24.033 22.6455 24.326 22.5723 24.6597 22.4258C24.9933 22.2793 25.3677 22.1369 25.7827 21.9985C26.1978 21.8521 26.6413 21.7788 27.1133 21.7788ZM26.4419 20.2285C26.1245 20.611 25.7257 20.9325 25.2456 21.1929C24.7655 21.4451 24.3097 21.5713 23.8784 21.5713C23.7889 21.5713 23.7035 21.5632 23.6221 21.5469C23.6139 21.5225 23.6058 21.4777 23.5977 21.4126C23.5895 21.3475 23.5854 21.2783 23.5854 21.2051C23.5854 20.7168 23.6912 20.2448 23.9028 19.7891C24.1144 19.3252 24.3545 18.9427 24.623 18.6416C24.9648 18.2347 25.3962 17.897 25.917 17.6284C26.4378 17.3599 26.9342 17.2174 27.4062 17.2012C27.4307 17.307 27.4429 17.4331 27.4429 17.5796C27.4429 18.0679 27.3493 18.5439 27.1621 19.0078C26.9749 19.4635 26.7349 19.8704 26.4419 20.2285Z" fill="white"/>
</svg>
