<svg width="342" height="54" viewBox="0 0 342 54" fill="none" xmlns="http://www.w3.org/2000/svg">
<rect width="342" height="54" rx="12" fill="#FEE500"/>
<path d="M128.277 20.5293C128.277 25.5947 126.886 29.9365 120.707 33.0166L119.575 31.458C122.479 30.02 124.205 28.3501 125.179 26.3555L119.965 26.8564L119.705 25.0752L125.81 24.6855C126.023 23.9062 126.153 23.0806 126.218 22.1992H120.577V20.5293H128.277ZM132.693 18.8779V25.4463H135.18V27.1348H132.693V35.6143H130.634V18.8779H132.693ZM144.698 20.5293C144.698 25.5947 143.307 29.9365 137.128 33.0166L135.996 31.458C138.9 30.02 140.625 28.3501 141.6 26.3555L136.386 26.8564L136.126 25.0752L142.23 24.6855C142.444 23.9062 142.574 23.0806 142.639 22.1992H136.998V20.5293H144.698ZM149.114 18.8779V25.4463H151.601V27.1348H149.114V35.6143H147.055V18.8779H149.114ZM160.024 19.8242C163.624 19.8242 166.277 21.624 166.277 24.3516C166.277 26.8657 164.116 28.5449 161.045 28.8418V31.9219H167.725V33.6104H152.398V31.9219H159.004V28.8418C155.952 28.5449 153.79 26.8657 153.809 24.3516C153.79 21.624 156.443 19.8242 160.024 19.8242ZM160.024 21.4941C157.575 21.4756 155.812 22.5889 155.831 24.3516C155.812 26.1699 157.575 27.2461 160.024 27.2461C162.511 27.2461 164.255 26.1699 164.255 24.3516C164.255 22.5889 162.511 21.4756 160.024 21.4941ZM188.654 31.9961V33.7031H173.328V31.9961H179.934V29.2686H175.146V23.7764H184.795V21.6982H175.109V20.0283H186.836V25.4092H177.206V27.5801H187.226V29.2686H181.975V31.9961H188.654ZM203.09 20.5107V22.4033C203.09 24.6484 203.09 26.9678 202.478 30.4932L200.381 30.3076C201.03 27.0049 201.03 24.5742 201.03 22.4033V22.1807H191.363V20.5107H203.09ZM205.038 31.6621V33.3506H189.749V31.6621H205.038ZM220.142 18.8965V31.0127H218.063V18.8965H220.142ZM220.605 33.6475V35.3174H209.046V29.7881H211.124V33.6475H220.605ZM210.994 19.9912C213.536 19.9912 215.503 21.7539 215.503 24.1846C215.503 26.6709 213.536 28.3965 210.994 28.3965C208.434 28.3965 206.467 26.6709 206.467 24.1846C206.467 21.7539 208.434 19.9912 210.994 19.9912ZM210.994 21.791C209.565 21.791 208.471 22.7373 208.489 24.1846C208.471 25.6689 209.565 26.5967 210.994 26.5967C212.386 26.5967 213.48 25.6689 213.48 24.1846C213.48 22.7373 212.386 21.791 210.994 21.791Z" fill="#191919"/>
<g clip-path="url(#clip0_844_3704)">
<path fill-rule="evenodd" clip-rule="evenodd" d="M23.5 18.6C18.5292 18.6 14.5 21.7129 14.5 25.5523C14.5 27.94 16.0584 30.0449 18.4315 31.2969L17.433 34.9445C17.3448 35.2668 17.7134 35.5237 17.9965 35.3369L22.3733 32.4482C22.7427 32.4838 23.1181 32.5046 23.5 32.5046C28.4705 32.5046 32.4999 29.3918 32.4999 25.5523C32.4999 21.7129 28.4705 18.6 23.5 18.6Z" fill="black"/>
</g>
<defs>
<clipPath id="clip0_844_3704">
<rect width="17.9999" height="18" fill="white" transform="translate(14.5 18)"/>
</clipPath>
</defs>
</svg>
